<svg xmlns="http://www.w3.org/2000/svg" viewBox="0 0 600 600"><title>HMed</title><g id="DESIGNED_BY_FREEPIK" data-name="DESIGNED BY FREEPIK"><circle cx="300" cy="284.12" r="239" style="fill:#293252"/><circle cx="300" cy="284.12" r="223.02" style="fill:none;stroke:#506dbd;stroke-miterlimit:10;stroke-width:6px"/><circle cx="300" cy="284.12" r="199.67" style="fill:none;stroke:#738ed7;stroke-miterlimit:10;stroke-width:7px;stroke-dasharray:20.106122970581055,32.169795989990234"/><path d="M98.75,560.87l405.52,0c.93,0,1.69-.27,1.69-.6V524.75c0-.33-.75-.6-1.68-.6l-405.53,0c-.93,0-1.68.27-1.68.61v35.48C97.06,560.6,97.81,560.87,98.75,560.87Z" style="fill:#293252"/><path d="M72.34,486.2a4.2,4.2,0,0,1,0,3.9L49.65,534.27a1.31,1.31,0,0,0,.22,1.52,2.36,2.36,0,0,0,1.75.71h48a1.92,1.92,0,0,0,2.12-1.63V464c0-2.32,2-4.38,4.85-5.06l67-15.91a1.68,1.68,0,0,0,1.48-1.81,2,2,0,0,0-2.1-1.39H51.62a2.33,2.33,0,0,0-1.75.72,1.31,1.31,0,0,0-.22,1.52Z" style="fill:#293252"/><path d="M80.74,531.41H520c1,0,1.83-.61,1.83-1.37v-80.1c0-.75-.82-1.36-1.83-1.36H80.74c-1,0-1.83.61-1.83,1.36V530C78.91,530.8,79.73,531.41,80.74,531.41Z" style="fill:#293252"/><path d="M437.91,443,501.2,458.9c2.73.68,4.59,2.74,4.59,5.06v70.91a1.84,1.84,0,0,0,2,1.63h45.33a2.17,2.17,0,0,0,1.65-.71,1.4,1.4,0,0,0,.21-1.52L533.55,490.1a4.38,4.38,0,0,1,0-3.9L555,442a1.4,1.4,0,0,0-.21-1.52,2.14,2.14,0,0,0-1.65-.72H438.5a1.92,1.92,0,0,0-2,1.39A1.67,1.67,0,0,0,437.91,443Z" style="fill:#293252"/><rect x="107" y="439.79" width="392.67" height="40.94" style="fill:#293252"/><path d="M426.09,247.42V262.8a6.06,6.06,0,0,1-6.06,6.06H409.45a6.06,6.06,0,0,0,6.06-6.06V247.42a6.06,6.06,0,0,0-6.06-6.06H420A6.06,6.06,0,0,1,426.09,247.42Z" style="fill:#404a4a"/><path d="M241,176.54a100.63,100.63,0,0,1-2.46-17.61c0-.41-.12-2-.22-3.47a3.12,3.12,0,0,1,3.25-3.33,133.31,133.31,0,0,1,21.14,2.11A86.65,86.65,0,0,1,290,164.31c13.52,8.09,20.88,20.38,18.33,36.46-1.48,9.33-10.54,18.49-19.65,20.18-27.79,5.17-42.4-21.22-47.74-44.41Z" style="fill:#c8ea74"/><path d="M308.35,200.77C307,209,299.78,217.18,291.8,220.1c4-3.77,6.91-8.71,7.7-13.69,2.55-16.08-4.81-28.37-18.33-36.46a86.65,86.65,0,0,0-27.35-10.07,108.3,108.3,0,0,0-15.37-1.83c0-.68-.11-1.64-.17-2.59a3.12,3.12,0,0,1,3.25-3.33,132.15,132.15,0,0,1,21.14,2.11A86.65,86.65,0,0,1,290,164.31C303.54,172.4,310.9,184.69,308.35,200.77Z" style="fill:#b6e446"/><path d="M332.35,243l26.5-77.7a16.54,16.54,0,0,1,.93-2.16A17.28,17.28,0,0,1,392.32,170a17.54,17.54,0,0,1-.13,3.32L382,243Z" style="fill:#607881"/><path d="M392.19,173.32,382,243H370.49l10.31-69.93a17.54,17.54,0,0,0,.13-3.32,17.32,17.32,0,0,0-11.22-15A17.3,17.3,0,0,1,392.32,170a18.41,18.41,0,0,1-.13,3.32Z" style="fill:#566d74"/><path d="M331.71,414.12H268.29a9.17,9.17,0,0,1-9.18-9.17V384.28h81.78V405A9.17,9.17,0,0,1,331.71,414.12Z" style="fill:#485959"/><path d="M340.89,384.28v20.64a9.2,9.2,0,0,1-9.21,9.2H321.07a9.19,9.19,0,0,0,9.2-9.2V384.28Z" style="fill:#404a4a"/><path d="M184.94,267.62s2.71,85,74.16,116.66h81.8c71.45-31.65,74.16-116.66,74.16-116.66Z" style="fill:#9ab8c2"/><path d="M415.06,267.62s-2.71,85-74.15,116.66H329.52c71.45-31.65,74.16-116.66,74.16-116.66Z" style="fill:#869fae"/><path d="M420.44,268.82H179.56a6.06,6.06,0,0,1-6.06-6.07V247.28a6.06,6.06,0,0,1,6.06-6.06H420.44a6.06,6.06,0,0,1,6.06,6.06v15.47a6.06,6.06,0,0,1-6.06,6.07Z" style="fill:#485959"/><path d="M290.83,197.82l-12.27-12.41c1.59-3.08,3.47-8.16,2.3-13.63a4,4,0,0,0-7.76,1.67,11.07,11.07,0,0,1-.54,5.9l-9.41-9.53a4,4,0,1,0-5.64,5.58l17.92,18.13a11,11,0,0,1-5.65-.07,4,4,0,0,0-2.37,7.57,17.18,17.18,0,0,0,5.12.76,23.46,23.46,0,0,0,9.1-2l3.56,3.61a4,4,0,0,0,2.82,1.18,4,4,0,0,0,2.82-6.76Z" style="fill:#a2ca38"/><path d="M112.94,548.92H493.06a1.46,1.46,0,0,0,1.58-1.3V471.23a1.46,1.46,0,0,0-1.58-1.3H112.94a1.46,1.46,0,0,0-1.58,1.3v76.39A1.46,1.46,0,0,0,112.94,548.92Z" style="fill:#f8707a"/><path d="M446.15,451.87l50,12.7a4.42,4.42,0,0,1,3.62,4.05v56.59a1.45,1.45,0,0,0,1.58,1.3h35.78a1.67,1.67,0,0,0,1.3-.57,1.1,1.1,0,0,0,.16-1.21l-16.91-35.26a3.54,3.54,0,0,1,0-3.11l16.91-35.25a1.12,1.12,0,0,0-.16-1.22,1.7,1.7,0,0,0-1.3-.57H446.61a1.53,1.53,0,0,0-1.56,1.11A1.32,1.32,0,0,0,446.15,451.87Z" style="fill:#f8707a"/><path d="M84.36,486.36a3.54,3.54,0,0,1,0,3.11L67.45,524.73a1.1,1.1,0,0,0,.16,1.21,1.67,1.67,0,0,0,1.3.57h35.78a1.45,1.45,0,0,0,1.58-1.3V468.62a4.42,4.42,0,0,1,3.62-4.05l50-12.7a1.32,1.32,0,0,0,1.1-1.44,1.53,1.53,0,0,0-1.56-1.11H68.91a1.7,1.7,0,0,0-1.3.57,1.12,1.12,0,0,0-.16,1.22Z" style="fill:#f8707a"/><path d="M421.65,466.35H476.4a1.52,1.52,0,0,0,1.56-1.1,1.29,1.29,0,0,0-1.07-1.44l-54.76-14.42a1.59,1.59,0,0,0-.48-.07,1.76,1.76,0,0,0-.93.26,1.23,1.23,0,0,0-.65,1.05v14.42A1.46,1.46,0,0,0,421.65,466.35Z" style="fill:#f8707a"/><path d="M129.6,466.35h54.75a1.46,1.46,0,0,0,1.58-1.3V450.63a1.23,1.23,0,0,0-.65-1.05,1.76,1.76,0,0,0-.93-.26,1.59,1.59,0,0,0-.48.07l-54.76,14.42a1.3,1.3,0,0,0-1.08,1.44A1.54,1.54,0,0,0,129.6,466.35Z" style="fill:#f8707a"/><path d="M124.48,491.9v14.64h10.19V491.9h6.8v35.4h-6.8V511.71H124.48V527.3h-6.8V491.9Z" style="fill:#f7f5ee"/><path d="M166,511.17H155.81v11.26h11.58v4.87H149V491.9h17.62v4.87H155.81v9.71H166Z" style="fill:#f7f5ee"/><path d="M173,492.43a44.33,44.33,0,0,1,8.19-.68c4.41,0,8.11.63,10.64,2.58a8.36,8.36,0,0,1,3.23,7.16c0,4.12-2.4,7.31-6.74,9v.11c3,.89,4.59,3.24,5.46,7.43s1.93,8.1,2.62,9.31h-7.05c-.57-1-1.48-4.49-2.21-8.6-.83-4.61-2.42-6.1-5.82-6.1h-1.56v14.7H173Zm6.76,15.84h1.77c4.09,0,6.64-2.62,6.64-6.21s-1.7-5.83-6.13-5.89a9.26,9.26,0,0,0-2.28.21Z" style="fill:#f7f5ee"/><path d="M201.17,492.43a45.8,45.8,0,0,1,8.46-.68c3.93,0,7.58.54,10.23,2.47a7.48,7.48,0,0,1,3,6.28c0,3.35-2.17,6.31-6.38,7.78v.16c5,1.14,7.75,4.49,7.75,8.72a9,9,0,0,1-3.1,7c-2.5,2.29-6.69,3.42-12.87,3.42a55.48,55.48,0,0,1-7.14-.38Zm6.77,14.24h2c3.46,0,6.26-2.3,6.26-5.54,0-2.9-1.64-5.14-5.87-5.14a9.78,9.78,0,0,0-2.39.23Zm0,16.36a11.5,11.5,0,0,0,2.14.15c4.16,0,7.17-2,7.17-6.08s-3.46-6.21-7.36-6.23h-1.95Z" style="fill:#f7f5ee"/><path d="M236.12,518.07l-2.31,9.23h-6.59l9.54-35.4h7.94l8.88,35.4h-6.64l-2.28-9.23Zm7.83-4.39-1.8-8.12c-.51-2.32-1.08-5.58-1.55-8.06h-.18c-.47,2.5-1.11,5.87-1.63,8.08l-1.88,8.1Z" style="fill:#f7f5ee"/><path d="M258.62,491.9h6.8v30.65h11.47v4.75H258.62Z" style="fill:#f7f5ee"/><path d="M318,513.63c-.24-4-.53-8.79-.41-12.7h-.21c-.83,3.87-2,8.17-3,11.54l-4.43,14.41h-4.66l-4.22-14a115.87,115.87,0,0,1-3-11.95h-.18c-.06,4-.35,8.69-.59,12.88l-.76,13.49h-5.93l2.85-35.4h7.24l4.14,14.33c1.3,4.57,2.39,8.28,3.23,12.3h.15c.74-4,1.69-7.69,2.93-12.3l4.06-14.33h7.32L325,527.3H318.8Z" style="fill:#f7f5ee"/><path d="M348.37,511.17H338.15v11.26h11.58v4.87H331.36V491.9H349v4.87H338.15v9.71h10.22Z" style="fill:#f7f5ee"/><path d="M355.3,492.43a37.23,37.23,0,0,1,7.63-.68c5,0,8.52,1,11.09,2.93,3.52,2.57,5.67,7.2,5.67,14.3,0,7.59-2.3,12.35-5.59,15-2.86,2.42-7,3.6-12.54,3.6a52,52,0,0,1-6.26-.38Zm6.77,30.39a9.94,9.94,0,0,0,1.66.1c4.65,0,8.92-3.23,8.92-14,0-8-2.75-12.64-8.63-12.64a8.62,8.62,0,0,0-1.95.18Z" style="fill:#f7f5ee"/><path d="M392,491.9v35.4h-6.8V491.9Z" style="fill:#f7f5ee"/><path d="M419.35,526.74a18.49,18.49,0,0,1-6.31.87c-9.8,0-15.39-6.59-15.39-17.52,0-13.62,8.71-18.5,16.35-18.5a13.8,13.8,0,0,1,5.61.9l-1.25,4.74a10.08,10.08,0,0,0-4.08-.72c-4.68,0-9.45,3.52-9.45,13.19s4.32,12.94,9.49,12.94a14.81,14.81,0,0,0,4.23-.63Z" style="fill:#f7f5ee"/><path d="M431,491.9v35.4h-6.8V491.9Z" style="fill:#f7f5ee"/><path d="M438.55,527.3V491.9h6.29L452,507c1.52,3.21,3.67,7.81,5,11.22h.13c-.34-4.54-.74-10-.74-16.33v-10h6v35.4h-6.29l-7.25-15.07A97.62,97.62,0,0,1,444.17,501h-.12c.3,4.09.51,9.11.51,16.43v9.89Z" style="fill:#f7f5ee"/><path d="M487,511.17H476.74v11.26h11.58v4.87H469.94V491.9h17.63v4.87H476.74v9.71H487Z" style="fill:#f7f5ee"/></g></svg>