<svg xmlns="http://www.w3.org/2000/svg" viewBox="0 0 600 600"><title>HMed</title><g id="DESIGNED_BY_FREEPIK" data-name="DESIGNED BY FREEPIK"><circle cx="297.42" cy="278.93" r="266.74" style="fill:#293252"/><circle cx="297.42" cy="278.93" r="248.9" style="fill:none;stroke:#506dbd;stroke-miterlimit:10;stroke-width:6.69634196086372px"/><circle cx="297.42" cy="278.93" r="222.84" style="fill:none;stroke:#738ed7;stroke-miterlimit:10;stroke-width:7.812398954341006px;stroke-dasharray:22.4395809173584,35.90332794189453"/><path d="M72.81,587.8l452.59,0c1,0,1.88-.3,1.88-.68v-39.6c0-.37-.84-.68-1.88-.67l-452.59,0c-1,0-1.88.3-1.88.68v39.6C70.93,587.5,71.77,587.8,72.81,587.8Z" style="fill:#293252"/><path d="M43.34,504.46a4.65,4.65,0,0,1,0,4.35L18,558.11a1.47,1.47,0,0,0,.24,1.69,2.61,2.61,0,0,0,1.95.8H73.78a2.14,2.14,0,0,0,2.36-1.82V479.64c0-2.59,2.2-4.88,5.42-5.65l74.79-17.76a1.86,1.86,0,0,0,1.64-2,2.27,2.27,0,0,0-2.34-1.55H20.21a2.61,2.61,0,0,0-1.95.8,1.47,1.47,0,0,0-.24,1.69Z" style="fill:#293252"/><path d="M52.71,554.92H543c1.13,0,2-.69,2-1.53V464c0-.85-.91-1.53-2-1.53H52.71c-1.12,0-2,.68-2,1.53v89.39C50.68,554.23,51.59,554.92,52.71,554.92Z" style="fill:#293252"/><path d="M451.34,456.23,522,474c3,.77,5.11,3.06,5.11,5.65v79.14a2.06,2.06,0,0,0,2.24,1.82h50.59a2.38,2.38,0,0,0,1.84-.8,1.53,1.53,0,0,0,.23-1.69l-23.91-49.3a4.89,4.89,0,0,1,0-4.35L582,455.16a1.53,1.53,0,0,0-.23-1.69,2.38,2.38,0,0,0-1.84-.8H452a2.15,2.15,0,0,0-2.21,1.55A1.84,1.84,0,0,0,451.34,456.23Z" style="fill:#293252"/><rect x="82.02" y="452.67" width="438.24" height="45.69" style="fill:#293252"/><path d="M438.15,238v17.17a6.77,6.77,0,0,1-6.77,6.76h-11.8a6.76,6.76,0,0,0,6.76-6.76V238a6.76,6.76,0,0,0-6.76-6.77h11.8A6.77,6.77,0,0,1,438.15,238Z" style="fill:#404a4a"/><path d="M231.53,158.86a112.27,112.27,0,0,1-2.74-19.65c0-.45-.13-2.17-.25-3.87a3.49,3.49,0,0,1,3.63-3.72A150.13,150.13,0,0,1,255.76,134c10.61,2.15,21.21,5.67,30.53,11.25,15.08,9,23.3,22.74,20.45,40.69-1.65,10.41-11.76,20.63-21.92,22.52-31,5.77-47.33-23.68-53.29-49.57Z" style="fill:#c8ea74"/><path d="M306.74,185.91c-1.46,9.23-9.56,18.31-18.47,21.57,4.42-4.21,7.72-9.72,8.6-15.28,2.84-17.94-5.37-31.66-20.46-40.69-9.32-5.58-19.91-9.1-30.53-11.24a121.73,121.73,0,0,0-17.15-2l-.19-2.89a3.49,3.49,0,0,1,3.63-3.72A150.13,150.13,0,0,1,255.76,134c10.61,2.15,21.21,5.67,30.53,11.25C301.37,154.24,309.59,168,306.74,185.91Z" style="fill:#b6e446"/><path d="M333.53,233.06l29.58-86.71a17.24,17.24,0,0,1,1-2.42,19.22,19.22,0,0,1,36.17,11.34L388.9,233.06Z" style="fill:#607881"/><path d="M400.31,155.27,388.9,233.06H376.1L387.6,155a18.28,18.28,0,0,0,.14-3.7,19.26,19.26,0,0,0-12.52-16.73,19.3,19.3,0,0,1,25.24,17,19.93,19.93,0,0,1-.15,3.7Z" style="fill:#566d74"/><path d="M332.81,424H262a10.23,10.23,0,0,1-10.24-10.24V390.71h91.27v23.07A10.24,10.24,0,0,1,332.81,424Z" style="fill:#485959"/><path d="M343.05,390.71v23A10.27,10.27,0,0,1,332.78,424H320.94a10.27,10.27,0,0,0,10.27-10.27v-23Z" style="fill:#404a4a"/><path d="M169,260.51s3,94.88,82.76,130.2h91.31c79.73-35.32,82.76-130.2,82.76-130.2Z" style="fill:#9ab8c2"/><path d="M425.84,260.51s-3,94.88-82.76,130.2H330.37c79.74-35.32,82.76-130.2,82.76-130.2Z" style="fill:#869fae"/><path d="M431.84,261.85H163a6.77,6.77,0,0,1-6.77-6.77V237.82a6.77,6.77,0,0,1,6.77-6.77H431.84a6.76,6.76,0,0,1,6.76,6.77v17.26a6.77,6.77,0,0,1-6.76,6.77Z" style="fill:#485959"/><path d="M287.19,182.62l-13.7-13.86c1.78-3.43,3.88-9.11,2.57-15.21a4.43,4.43,0,0,0-8.66,1.86,12.39,12.39,0,0,1-.6,6.59l-10.51-10.63a4.42,4.42,0,1,0-6.29,6.22l20,20.23a12.18,12.18,0,0,1-6.31-.07,4.43,4.43,0,0,0-2.64,8.45,19.29,19.29,0,0,0,5.71.85,26.14,26.14,0,0,0,10.16-2.24l4,4a4.42,4.42,0,1,0,6.29-6.22Z" style="fill:#a2ca38"/><path d="M88.66,574.46H512.88a1.63,1.63,0,0,0,1.77-1.45V487.76a1.63,1.63,0,0,0-1.77-1.46H88.66a1.62,1.62,0,0,0-1.76,1.46V573A1.62,1.62,0,0,0,88.66,574.46Z" style="fill:#f8707a"/><path d="M460.53,466.15l55.76,14.18a4.93,4.93,0,0,1,4,4.51V548a1.63,1.63,0,0,0,1.76,1.45H562a1.88,1.88,0,0,0,1.46-.63,1.23,1.23,0,0,0,.18-1.35l-18.87-39.35a3.94,3.94,0,0,1,0-3.48l18.87-39.34a1.24,1.24,0,0,0-.18-1.36,1.91,1.91,0,0,0-1.46-.63h-101a1.69,1.69,0,0,0-1.74,1.23A1.47,1.47,0,0,0,460.53,466.15Z" style="fill:#f8707a"/><path d="M56.76,504.64a4,4,0,0,1,0,3.48L37.88,547.47a1.23,1.23,0,0,0,.18,1.35,1.89,1.89,0,0,0,1.46.63H79.45A1.63,1.63,0,0,0,81.21,548V484.84a4.93,4.93,0,0,1,4-4.51L141,466.15a1.47,1.47,0,0,0,1.22-1.61,1.69,1.69,0,0,0-1.74-1.23h-101a1.93,1.93,0,0,0-1.46.63,1.24,1.24,0,0,0-.18,1.36Z" style="fill:#f8707a"/><path d="M433.19,482.31H494.3a1.69,1.69,0,0,0,1.74-1.23,1.46,1.46,0,0,0-1.2-1.61l-61.11-16.09a2,2,0,0,0-.54-.07,2,2,0,0,0-1,.28,1.39,1.39,0,0,0-.72,1.17v16.1A1.63,1.63,0,0,0,433.19,482.31Z" style="fill:#f8707a"/><path d="M107.24,482.31h61.11a1.63,1.63,0,0,0,1.76-1.45v-16.1a1.39,1.39,0,0,0-.72-1.17,2,2,0,0,0-1-.28,2,2,0,0,0-.54.07l-61.1,16.09a1.47,1.47,0,0,0-1.21,1.61A1.69,1.69,0,0,0,107.24,482.31Z" style="fill:#f8707a"/><path d="M101.53,510.83v16.34h11.38V510.83h7.59v39.5h-7.59v-17.4H101.53v17.4H93.94v-39.5Z" style="fill:#f7f5ee"/><path d="M147.9,532.33H136.5V544.9h12.92v5.43H128.91v-39.5h19.67v5.43H136.5V527.1h11.4Z" style="fill:#f7f5ee"/><path d="M155.64,511.41a49.91,49.91,0,0,1,9.14-.76c4.92,0,9.05.71,11.87,2.89,2.67,2.08,3.61,4.72,3.61,8,0,4.6-2.68,8.15-7.52,10v.12c3.37,1,5.12,3.62,6.09,8.29,1,4.84,2.15,9,2.93,10.39h-7.88c-.63-1.13-1.64-5-2.46-9.6-.93-5.14-2.7-6.81-6.49-6.81h-1.74v16.41h-7.55Zm7.55,17.68h2c4.56,0,7.41-2.92,7.41-6.93s-1.9-6.5-6.84-6.57a10.73,10.73,0,0,0-2.54.23Z" style="fill:#f7f5ee"/><path d="M187.13,511.41a51.13,51.13,0,0,1,9.43-.76c4.39,0,8.47.61,11.42,2.77a8.31,8.31,0,0,1,3.41,7c0,3.74-2.42,7-7.12,8.68v.19c5.54,1.27,8.65,5,8.65,9.72a10,10,0,0,1-3.46,7.79c-2.79,2.55-7.47,3.81-14.37,3.81a62.9,62.9,0,0,1-8-.42Zm7.55,15.9h2.23c3.87,0,7-2.57,7-6.19,0-3.23-1.83-5.73-6.55-5.73a10.34,10.34,0,0,0-2.67.26Zm0,18.26a13.12,13.12,0,0,0,2.39.17c4.64,0,8-2.29,8-6.79s-3.87-6.93-8.21-7h-2.18Z" style="fill:#f7f5ee"/><path d="M226.13,540l-2.58,10.29h-7.36l10.66-39.5h8.86l9.91,39.5H238.2L235.66,540Zm8.73-4.91-2-9.07c-.57-2.58-1.21-6.22-1.73-9h-.2c-.53,2.79-1.24,6.56-1.82,9l-2.1,9Z" style="fill:#f7f5ee"/><path d="M251.24,510.83h7.59V545h12.8v5.3H251.24Z" style="fill:#f7f5ee"/><path d="M317.47,535.08c-.27-4.43-.59-9.81-.46-14.17h-.23c-.94,4.31-2.22,9.11-3.38,12.87l-4.94,16.08h-5.2l-4.71-15.62a127.86,127.86,0,0,1-3.38-13.33H295c-.06,4.46-.39,9.69-.66,14.37l-.85,15.05h-6.61l3.17-39.5h8.09l4.62,16c1.45,5.1,2.66,9.24,3.59,13.72h.18c.82-4.43,1.89-8.58,3.27-13.72l4.53-16h8.16l2.84,39.5h-6.89Z" style="fill:#f7f5ee"/><path d="M351.4,532.33H340V544.9h12.92v5.43H332.42v-39.5h19.67v5.43H340V527.1H351.4Z" style="fill:#f7f5ee"/><path d="M359.14,511.41a42.36,42.36,0,0,1,8.51-.76c5.58,0,9.51,1.11,12.38,3.27,3.93,2.87,6.33,8.05,6.33,16,0,8.47-2.57,13.79-6.24,16.71-3.19,2.71-7.86,4-14,4a58.93,58.93,0,0,1-7-.42Zm7.55,33.92a11.32,11.32,0,0,0,1.86.11c5.19,0,10-3.6,10-15.64,0-8.94-3.07-14.11-9.64-14.11a10.1,10.1,0,0,0-2.18.2Z" style="fill:#f7f5ee"/><path d="M400.14,510.83v39.5h-7.59v-39.5Z" style="fill:#f7f5ee"/><path d="M430.62,549.7a20.55,20.55,0,0,1-7,1c-10.94,0-17.18-7.36-17.18-19.56,0-15.2,9.73-20.64,18.25-20.64a15.52,15.52,0,0,1,6.27,1l-1.4,5.3A11.15,11.15,0,0,0,425,516c-5.22,0-10.54,3.94-10.54,14.73,0,10.64,4.83,14.44,10.59,14.44a16.87,16.87,0,0,0,4.72-.7Z" style="fill:#f7f5ee"/><path d="M443.57,510.83v39.5H436v-39.5Z" style="fill:#f7f5ee"/><path d="M452.05,550.33v-39.5h7l8,16.86c1.7,3.58,4.09,8.71,5.58,12.52h.14c-.38-5.07-.82-11.16-.82-18.22V510.83h6.72v39.5h-7l-8.1-16.81A107.07,107.07,0,0,1,458.33,521h-.14c.33,4.56.58,10.16.58,18.33v11Z" style="fill:#f7f5ee"/><path d="M506.08,532.33h-11.4V544.9H507.6v5.43H487.09v-39.5h19.67v5.43H494.68V527.1h11.4Z" style="fill:#f7f5ee"/></g></svg>